<?xml version="1.0" encoding="UTF-8"?>
<svg id="Calque_2" xmlns="http://www.w3.org/2000/svg" viewBox="0 0 993.34 205.46">
    <defs>
        <style>.cls-1{fill:#edae9b;stroke-width:0px;}</style>
    </defs>
    <g id="OBJECTS">
        <path class="cls-1"
              d="m5.54,49.12L108.77,4.79c4.86-2.09,11.56-2.16,16.56-.18l102.16,40.55c5.15,2.05,12.09,1.9,16.96-.35l11.36-5.26c4.98-2.3,12.09-2.4,17.25-.24l50.94,21.34c4.84,2.03,11.43,2.08,16.38.14l10.42-4.1c4.91-1.93,11.44-1.89,16.27.1l9.32,3.83c4.96,2.04,11.69,2.02,16.61-.04l82.58-34.58c5.05-2.12,11.98-2.07,16.95.1l18.07,7.9c5.59,2.44,13.52,2.16,18.52-.66h0c5.02-2.84,13-3.11,18.59-.63l41,18.17c5.17,2.29,12.47,2.25,17.55-.1l21.78-10.07c4.81-2.22,11.63-2.4,16.77-.42l13.64,5.23c4.87,1.87,11.28,1.82,16.06-.11L777.31,3.79c3.86-1.56,8.86-1.92,13.29-.94l87.36,19.29c4.53,1,9.64.61,13.53-1.04l46.04-19.51c5.03-2.13,11.97-2.11,16.96.05l33.34,14.44c3.47,1.5,5.5,3.83,5.5,6.3v175.16c0,4.38-6.28,7.93-14.04,7.93H14.04c-7.75,0-14.04-3.55-14.04-7.93V55.44c0-2.48,2.05-4.82,5.54-6.32Z"/>
    </g>
</svg>