<?xml version="1.0" encoding="UTF-8"?>
<svg id="Calque_2" xmlns="http://www.w3.org/2000/svg" viewBox="0 0 818.99 190.81">
    <defs>
        <style>.cls-1{fill:#84617e;stroke-width:0px;}</style>
    </defs>
    <g id="OBJECTS">
        <path class="cls-1"
              d="m0,124.39l115.55-36.23c1.25-.39,2.45-.91,3.58-1.56l41.08-23.36c5.02-2.85,11.08-3.18,16.38-.89l49.47,21.44c1.22.53,2.48.92,3.78,1.17l199.73,38.97c1.53.3,3.09.4,4.65.31l76.59-4.73c1.12-.07,2.23-.24,3.32-.51l109.13-27.28c.46-.11.92-.21,1.38-.29l52.78-8.95c3.42-.58,6.6-2.11,9.18-4.43l69.05-61.88c2.37-2.12,5.25-3.6,8.36-4.27l54.96-11.91v190.81H0v-66.42Z"/>
    </g>
</svg>