<?xml version="1.0" encoding="UTF-8"?>
<svg id="Calque_2" xmlns="http://www.w3.org/2000/svg" viewBox="0 0 783.57 252.5">
    <defs>
        <style>.cls-1{fill:#e89aa3;stroke-width:0px;}</style>
    </defs>
    <g id="OBJECTS">
        <path class="cls-1"
              d="m0,32.62L63.2,4.61C74.47-.39,87.12-1.35,99.01,1.87l77.37,20.98c8.12,2.2,16.64,2.47,24.88.77l6.33-1.3c8.08-1.66,16.43-1.44,24.41.64l88.6,23.17c9.74,2.55,20,2.3,29.6-.7l54.98-17.18c10-3.13,20.7-3.26,30.77-.38h0c10.81,3.09,22.32,2.71,32.9-1.09l7.3-2.62c7.99-2.87,16.55-3.8,24.98-2.72l147.59,18.94c7.21.92,14.52.38,21.51-1.61l113.34-32.2v192.23c0,29.66-24.04,53.7-53.7,53.7H53.7c-29.66,0-53.7-24.04-53.7-53.7V32.62Z"/>
    </g>
</svg>