<?xml version="1.0" encoding="UTF-8"?>
<svg id="Calque_2" xmlns="http://www.w3.org/2000/svg" viewBox="0 0 790.08 129.56">
    <defs>
        <style>.cls-1{fill:#281f32;stroke-width:0px;}</style>
    </defs>
    <g id="OBJECTS">
        <path class="cls-1"
              d="m694.22,9.64l-10.53,3.16c-9.13,2.74-18.94,2-27.55-2.08l-14.79-7.01c-9.29-4.4-19.96-4.9-29.62-1.4l-55.39,20.09c-3.91,1.42-8.02,2.19-12.17,2.3l-78.98,1.97c-3.07.08-6.12.52-9.08,1.32l-120.91,32.66c-3.27.88-6.65,1.33-10.04,1.33h-59.95c-5.49,0-10.91-1.17-15.91-3.44l-69.53-31.55c-2.5-1.14-5.12-2-7.8-2.58L87.7,6.27c-5.96-1.28-12.14-1.13-18.03.44L0,25.29v104.28h790.08V38.38l-70.75-27.71c-8.02-3.14-16.86-3.5-25.12-1.03Z"/>
    </g>
</svg>