<?xml version="1.0" encoding="UTF-8"?>
<svg id="Calque_2" xmlns="http://www.w3.org/2000/svg" viewBox="0 0 790.43 171.78">
    <defs>
        <style>.cls-1{fill:#af8cad;stroke-width:0px;}</style>
    </defs>
    <g id="OBJECTS">
        <path class="cls-1"
              d="m0,133.24c0-19.17,14.09-35.43,33.07-38.15l140.06-50.88c7.22-2.62,15.09-2.92,22.49-.85l90.31,25.25c.69-.13,61.31-16.75,62.01-16.84l65.97-16.66c1.67-.22,3.36-.33,5.04-.33h17.13c3.66,0,7.3.52,10.81,1.55l95.57,27.91c6.87,2.01,14.16,2.06,21.06.16l63.65-17.57c2.81-.78,5.53-1.87,8.1-3.26l57.27-31.02c5.64-3.05,11.95-4.65,18.36-4.65h4.75c4.49,0,8.95-.79,13.17-2.32l8.91-3.24c10.58-3.85,22.31-2.88,32.11,2.66l20.59,11.62v116.64c0,21.28-17.25,38.54-38.54,38.54H38.54c-21.28,0-38.54-17.25-38.54-38.54h0Z"/>
    </g>
</svg>