<?xml version="1.0" encoding="UTF-8"?>
<svg id="Calque_2" xmlns="http://www.w3.org/2000/svg" viewBox="0 0 826.36 176.22">
    <defs>
        <style>.cls-1{fill:#9e81a8;stroke-width:0px;}</style>
    </defs>
    <g id="OBJECTS">
        <path class="cls-1"
              d="m0,34.85L60.36,14.51c1.58-.53,3.12-1.17,4.61-1.9l17.75-8.73c5.19-2.55,10.89-3.88,16.66-3.88h9.61c8.71,0,17.14,3.01,23.89,8.52l60.26,49.23,85.03,64c4.97,3.74,10.78,6.19,16.93,7.15l58.46,9.06c1.91.3,3.85.45,5.78.45h61.34c6.19,0,12.28-1.52,17.75-4.43l98.65-52.54c1.03-.55,2.09-1.05,3.16-1.5l28.36-11.88c5.81-2.43,12.14-3.37,18.4-2.74l31.47,3.2c4.48.46,8.84,1.71,12.87,3.7l50.47,24.87c8.44,4.16,18.13,5.02,27.17,2.41l18.52-5.35c7.94-2.29,16.41-1.92,24.11,1.06l8.8,3.41c6.66,2.58,13.9,3.21,20.91,1.84l45.03-8.85v84.63H37.76c-20.85,0-37.76-16.9-37.76-37.76V34.85Z"/>
    </g>
</svg>